<svg width="35" height="35" viewBox="0 0 35 35" fill="none" xmlns="http://www.w3.org/2000/svg">
<rect width="35" height="35" rx="11.25" fill="#35383E" fill-opacity="0.1"/>
<path d="M16.3571 9C15.1 9 14.0714 9.95625 14.0714 11.125H11.7857C10.5286 11.125 9.5 12.0812 9.5 13.25H25.5C25.5 12.0812 24.4714 11.125 23.2143 11.125H20.9286C20.9286 9.95625 19.9 9 18.6429 9H16.3571ZM11.7857 15.375V25.5962C11.7857 25.83 11.9686 26 12.22 26H22.8029C23.0543 26 23.2371 25.83 23.2371 25.5962V15.375H20.9514V22.8125C20.9514 23.4075 20.4486 23.875 19.8086 23.875C19.1686 23.875 18.6657 23.4075 18.6657 22.8125V15.375H16.38V22.8125C16.38 23.4075 15.8771 23.875 15.2371 23.875C14.5971 23.875 14.0943 23.4075 14.0943 22.8125V15.375H11.8086H11.7857Z" fill="#35383E" fill-opacity="0.25"/>
</svg>
