<svg width="35" height="35" viewBox="0 0 35 35" fill="none" xmlns="http://www.w3.org/2000/svg">
<rect width="35" height="35" rx="11.25" fill="#FFAA04" fill-opacity="0.8"/>
<path fill-rule="evenodd" clip-rule="evenodd" d="M19.5707 25.2274C15.3029 26.3709 10.9162 23.8383 9.7727 19.5705C8.62917 15.3028 11.1618 10.9161 15.4296 9.77259C19.6973 8.62905 24.084 11.1617 25.2275 15.4294L22.8127 16.0765C22.0265 13.1424 19.0107 11.4012 16.0766 12.1874C13.1425 12.9736 11.4013 15.9894 12.1875 18.9235C12.9737 21.8576 15.9895 23.5988 18.9236 22.8126L19.5707 25.2274Z" fill="white"/>
<path fill-rule="evenodd" clip-rule="evenodd" d="M19.5707 25.2274C15.3029 26.3709 10.9162 23.8383 9.7727 19.5705C8.62917 15.3028 11.1618 10.9161 15.4296 9.77259C19.6973 8.62905 24.084 11.1617 25.2275 15.4294L22.8127 16.0765C22.0265 13.1424 19.0107 11.4012 16.0766 12.1874C13.1425 12.9736 11.4013 15.9894 12.1875 18.9235C12.9737 21.8576 15.9895 23.5988 18.9236 22.8126L19.5707 25.2274Z" fill="#FFAA04" fill-opacity="0.1"/>
</svg>
